HIERARCHY
ROOT Root
{
	OFFSET 0.00000 0.00000 0.00000
	CHANNELS 6 Xposition Yposition Zposition Zrotation Xrotation Yrotation
	JOINT Hips
	{
		OFFSET 0 0 0	
		CHANNELS 3 Zrotation Xrotation Yrotation
		JOINT Spine
		{
			OFFSET 0 4 0	
			CHANNELS 3 Zrotation Xrotation Yrotation
			JOINT Spine1
			{
				OFFSET 0 19.4 0	
				CHANNELS 3 Zrotation Xrotation Yrotation
				JOINT Spine2
				{
					OFFSET 0 16.6 0	
					CHANNELS 3 Zrotation Xrotation Yrotation
					JOINT LeftCollar
					{
						OFFSET 0 10 0	
						CHANNELS 3 Zrotation Xrotation Yrotation
						JOINT LeftArm
						{
							OFFSET 15.6 -2 3	
							CHANNELS 3 Zrotation Xrotation Yrotation
							JOINT LeftForeArm
							{
								OFFSET 3.5 -27 -1	
								CHANNELS 3 Zrotation Xrotation Yrotation
								JOINT LeftHand
								{
									OFFSET 1 -27 1	
									CHANNELS 3 Zrotation Xrotation Yrotation
									End Site
									{
										OFFSET 0 -15 0
									}
								}
							}
						}
					}
					JOINT RightCollar
					{
						OFFSET 0 10 0	
						CHANNELS 3 Zrotation Xrotation Yrotation
						JOINT RightArm
						{
							OFFSET -15.6 -2 3	
							CHANNELS 3 Zrotation Xrotation Yrotation
							JOINT RightForeArm
							{
								OFFSET -3.5 -27 -1	
								CHANNELS 3 Zrotation Xrotation Yrotation
								JOINT RightHand
								{
									OFFSET -1 -27 1	
									CHANNELS 3 Zrotation Xrotation Yrotation
									End Site
									{
										OFFSET 0 -15 0
									}
								}
							}
						}
					}
					JOINT Neck
					{
						OFFSET 0 10 0	
						CHANNELS 3 Zrotation Xrotation Yrotation
						JOINT Head
						{
							OFFSET 0 12.7 3	
							CHANNELS 3 Zrotation Xrotation Yrotation
							End Site
							{
								OFFSET 0 12.7 3
							}
						}
					}
				}
			}
		}
	}
	JOINT LeftHip
	{
		OFFSET 0 0 0	
		CHANNELS 3 Zrotation Xrotation Yrotation
		JOINT LeftUpLeg
		{
			OFFSET 8.8 -6 0	
			CHANNELS 3 Zrotation Xrotation Yrotation
			JOINT LeftLeg
			{
				OFFSET 0 -39 2	
				CHANNELS 3 Zrotation Xrotation Yrotation
				JOINT LeftFoot
				{
					OFFSET 0 -43 -2	
					CHANNELS 3 Zrotation Xrotation Yrotation
					JOINT LeftFootFront
					{
						OFFSET 0 -7 8.5	
						CHANNELS 3 Zrotation Xrotation Yrotation
						End Site
						{
							OFFSET 0 -0.5 9
						}
					}
				}
				JOINT LeftHeel
				{
					OFFSET 0 -43 -2	
					CHANNELS 3 Zrotation Xrotation Yrotation
					End Site
					{
						OFFSET 0 -7.5 -5
					}
				}
			}
		}
	}
	JOINT RightHip
	{
		OFFSET 0 0 0	
		CHANNELS 3 Zrotation Xrotation Yrotation
		JOINT RightUpLeg
		{
			OFFSET -8.8 -6 0	
			CHANNELS 3 Zrotation Xrotation Yrotation
			JOINT RightLeg
			{
				OFFSET 0 -39 2	
				CHANNELS 3 Zrotation Xrotation Yrotation
				JOINT RightFoot
				{
					OFFSET 0 -43 -2	
					CHANNELS 3 Zrotation Xrotation Yrotation
					JOINT RightFootFront
					{
						OFFSET 0 -7 8.5	
						CHANNELS 3 Zrotation Xrotation Yrotation
						End Site
						{
							OFFSET 0 -0.5 9
						}
					}
				}
				JOINT RightHeel
				{
					OFFSET 0 -43 -2	
					CHANNELS 3 Zrotation Xrotation Yrotation
					End Site
					{
						OFFSET 0 -7.5 -5
					}
				}
			}
		}
	}
}
MOTION
Frames: 9
Frame Time: 0.025
0 95.55 0 -0 0 -0 -0.076042 0.37152 -1.306 0.731 0.5985 -0.19344 0.731 0.5985 -0.19344 0.6139 0.50291 -0.16198 -0 0 -0 -1.6533 -1.6981 1.5337 -0.88432 -1.0411 0.24016 -1.0332 -0.38451 -1.4116 -0 0 -0 -1.007 -2.0805 2.9051 -0.54873 -0.34991 -0.45672 -0.39561 0.24586 -0.51742 -1.4129 -3.9978 3.2344 -1.4129 -3.9978 3.2344 -0.076042 0.37152 -1.306 0.32655 -0.95125 1.752 -0.086264 0.68091 -0.71085 -0.039078 -0.4039 0.5957 -0 0 2.9963e-09 -0 0 -0 -0.076042 0.37152 -1.306 -0.11563 -0.39134 1.1515 0.18623 -0.52062 -0.17752 0.074952 0.30188 0.66024 -0 0 5.7452e-09 -0 0 -0 
0 95.548 0 -0 0 -0 -0.076348 0.35585 -1.2762 0.71396 0.61838 -0.19844 0.71396 0.61838 -0.19844 0.59958 0.51961 -0.16617 -0 0 -0 -1.6277 -1.744 1.4928 -0.89351 -1.0389 0.31895 -1.0005 -0.38191 -1.4664 -0 0 -0 -0.9739 -2.1035 2.8838 -0.52084 -0.32859 -0.43794 -0.4084 0.20555 -0.53093 -1.397 -3.9931 3.21 -1.397 -3.9931 3.21 -0.076348 0.35585 -1.2762 0.31289 -0.9069 1.724 -0.082978 0.6605 -0.73371 -0.029839 -0.41261 0.61667 0.0078158 0.053727 -0.0071012 -0 0 -0 -0.076348 0.35585 -1.2762 -0.12457 -0.36647 1.1211 0.17414 -0.50507 -0.15413 0.095749 0.27704 0.63729 -0.0020782 0.014627 -0.003268 -0 0 -0 
0 95.546 0 -0 0 -0 -0.076765 0.33223 -1.2358 0.6912 0.64107 -0.20262 0.6912 0.64107 -0.20262 0.58045 0.53866 -0.16968 -0 0 -0 -1.6031 -1.7967 1.4389 -0.89963 -1.0275 0.41794 -1.0441 -0.3881 -1.4292 -0 0 -0 -0.94073 -2.1194 2.8434 -0.47653 -0.31922 -0.42673 -0.42865 0.15412 -0.52689 -1.3777 -3.9685 3.1805 -1.3777 -3.9685 3.1805 -0.076765 0.33223 -1.2358 0.29322 -0.84067 1.6893 -0.0772 0.62642 -0.7642 -0.010375 -0.36794 0.63399 0.010556 0.07414 -0.0090173 -0 0 -0 -0.076765 0.33223 -1.2358 -0.13595 -0.32949 1.0778 0.15806 -0.48406 -0.12381 0.12061 0.25719 0.60647 -0.00056124 0.019578 -0.0036971 -0 0 -0 
0 95.544 0 -0 0 -0 -0.069926 0.30422 -1.1995 0.66967 0.65785 -0.20566 0.66967 0.65785 -0.20566 0.56236 0.55276 -0.17223 -0 0 -0 -1.6125 -1.8332 1.3978 -0.88934 -1.0044 0.49837 -0.98886 -0.39492 -1.4966 -0 0 -0 -0.92121 -2.1182 2.794 -0.44265 -0.33092 -0.42737 -0.43537 0.13198 -0.50009 -1.3614 -3.9273 3.1597 -1.3614 -3.9273 3.1597 -0.069926 0.30422 -1.1995 0.26282 -0.76412 1.6634 -0.067878 0.5813 -0.79583 0.011338 -0.29789 0.64583 0.0084423 0.071368 -0.004628 -0 0 -0 -0.069926 0.30422 -1.1995 -0.15333 -0.28755 1.0347 0.14397 -0.46239 -0.09857 0.14363 0.24095 0.58427 0.0019788 0.019381 -0.0038521 -0 0 -0 
0 95.541 0 -0 0 -0 -0.054504 0.27156 -1.1693 0.65 0.67383 -0.20914 0.65 0.67383 -0.20914 0.54583 0.56618 -0.17516 -0 0 -0 -1.6602 -1.855 1.365 -0.86242 -0.98607 0.55486 -0.9837 -0.41095 -1.4831 -0 0 -0 -0.91173 -2.1244 2.742 -0.42537 -0.34054 -0.41424 -0.42119 0.13971 -0.47706 -1.3464 -3.8726 3.1448 -1.3464 -3.8726 3.1448 -0.054504 0.27156 -1.1693 0.22253 -0.68152 1.6455 -0.055001 0.5271 -0.82422 0.028586 -0.22314 0.65678 0.0060289 0.052366 -0.0016625 -0 0 -0 -0.054504 0.27156 -1.1693 -0.17586 -0.24147 0.99695 0.13132 -0.43947 -0.083074 0.16426 0.22368 0.57238 0.0020514 0.019503 -0.0046668 -0 0 -0 
0 95.537 0 -0 0 -0 -0.047981 0.23845 -1.1367 0.63503 0.69275 -0.21416 0.63503 0.69275 -0.21416 0.53324 0.58207 -0.17938 -0 0 -0 -1.715 -1.8722 1.3285 -0.8349 -0.98226 0.59542 -0.97865 -0.42753 -1.4701 -0 0 -0 -0.9081 -2.1484 2.6963 -0.41229 -0.33762 -0.37566 -0.38326 0.14594 -0.48318 -1.3347 -3.8142 3.1302 -1.3347 -3.8142 3.1302 -0.047981 0.23845 -1.1367 0.19367 -0.60204 1.6268 -0.042864 0.47109 -0.851 0.041874 -0.16178 0.66774 0.012033 0.020086 -0.010426 -0 0 -0 -0.047981 0.23845 -1.1367 -0.18178 -0.19384 0.96284 0.11307 -0.41539 -0.076797 0.18281 0.20461 0.56311 -0.00010172 0.021732 -0.0047602 -0 0 -0 
0 95.534 0 -0 0 -0 -0.064819 0.20528 -1.0964 0.62881 0.71179 -0.22047 0.62881 0.71179 -0.22047 0.52801 0.59807 -0.18467 -0 0 -0 -1.7564 -1.8778 1.2858 -0.81747 -0.99642 0.6287 -0.97441 -0.44022 -1.4712 -0 0 -0 -0.90961 -2.1691 2.6705 -0.40083 -0.33472 -0.3329 -0.33232 0.14904 -0.5174 -1.3296 -3.7576 3.1148 -1.3296 -3.7576 3.1148 -0.064819 0.20528 -1.0964 0.19137 -0.52837 1.6009 -0.035712 0.41916 -0.8768 0.063431 -0.13025 0.66856 0.016405 -0.0071904 -0.0065152 -0 0 -0 -0.064819 0.20528 -1.0964 -0.15627 -0.14625 0.92948 0.087091 -0.38954 -0.0742 0.19884 0.18665 0.54904 -0.0040927 0.023231 -0.0041746 -0 0 -0 
0 95.529 0 -0 0 -0 -0.084934 0.16864 -1.0545 0.6225 0.72768 -0.22565 0.6225 0.72768 -0.22565 0.52271 0.61142 -0.18901 -0 0 -0 -1.7712 -1.8713 1.2475 -0.81635 -1.0184 0.65736 -0.97041 -0.44481 -1.4849 -0 0 -0 -0.90817 -2.1654 2.6685 -0.39393 -0.34665 -0.30326 -0.28649 0.1625 -0.56701 -1.3277 -3.709 3.0986 -1.3277 -3.709 3.0986 -0.084934 0.16864 -1.0545 0.19346 -0.46195 1.5741 -0.033201 0.37915 -0.90374 0.093529 -0.12701 0.67375 0.010319 -0.0036116 0.010779 -0 0 -0 -0.084934 0.16864 -1.0545 -0.12546 -0.099226 0.90111 0.059128 -0.35738 -0.068086 0.21088 0.16788 0.52545 -0.0087825 0.021453 -0.0046343 -0 0 -0 
0 95.525 0 -0 0 -0 -0.092667 0.12569 -1.0197 0.61138 0.74205 -0.22739 0.61138 0.74205 -0.22739 0.51336 0.62349 -0.19048 -0 0 -0 -1.7698 -1.8653 1.2219 -0.82117 -1.0328 0.67542 -0.96228 -0.44723 -1.5 -0 0 -0 -0.90078 -2.1434 2.6833 -0.3912 -0.3745 -0.28399 -0.26193 0.18296 -0.62617 -1.3318 -3.6878 3.0835 -1.3318 -3.6878 3.0835 -0.092667 0.12569 -1.0197 0.18261 -0.40657 1.5542 -0.032962 0.36216 -0.93756 0.12092 -0.12608 0.70333 -0.0031226 0.0019811 0.025687 -0 0 -0 -0.092667 0.12569 -1.0197 -0.11026 -0.052244 0.88011 0.032697 -0.31395 -0.054383 0.22004 0.14204 0.49348 -0.012412 0.019067 -0.0053162 -0 0 -0 
